<svg xmlns="http://www.w3.org/2000/svg" xmlns:xlink="http://www.w3.org/1999/xlink" width="500" zoomAndPan="magnify" viewBox="0 0 375 374.999991" height="500" preserveAspectRatio="xMidYMid meet" version="1.0"><defs><g/></defs><g fill="#6880b0" fill-opacity="1"><g transform="translate(32.441647, 161.780265)"><g><path d="M 47.953125 0 L 11.421875 0 C 9.742188 0 8.207031 -0.40625 6.8125 -1.21875 C 5.425781 -2.039062 4.320312 -3.144531 3.5 -4.53125 C 2.6875 -5.925781 2.28125 -7.457031 2.28125 -9.125 L 2.28125 -36.53125 C 2.28125 -38.207031 2.6875 -39.738281 3.5 -41.125 C 4.320312 -42.507812 5.425781 -43.609375 6.8125 -44.421875 C 8.207031 -45.242188 9.742188 -45.65625 11.421875 -45.65625 L 47.953125 -45.65625 L 47.953125 -36.53125 L 11.421875 -36.53125 L 11.421875 -9.125 L 47.953125 -9.125 Z M 47.953125 0 "/></g></g></g><g fill="#6880b0" fill-opacity="1"><g transform="translate(82.664912, 161.780265)"><g><path d="M 38.8125 -27.390625 L 38.8125 -45.65625 L 47.953125 -45.65625 L 47.953125 0 L 38.8125 0 L 38.8125 -18.265625 L 11.421875 -18.265625 L 11.421875 0 L 2.28125 0 L 2.28125 -45.65625 L 11.421875 -45.65625 L 11.421875 -27.390625 Z M 38.8125 -27.390625 "/></g></g></g><g fill="#6880b0" fill-opacity="1"><g transform="translate(132.888177, 161.780265)"><g><path d="M 11.421875 -45.65625 L 38.8125 -45.65625 C 40.488281 -45.65625 42.019531 -45.242188 43.40625 -44.421875 C 44.789062 -43.609375 45.894531 -42.507812 46.71875 -41.125 C 47.539062 -39.738281 47.953125 -38.207031 47.953125 -36.53125 L 47.953125 0 L 38.8125 0 L 38.8125 -18.265625 L 11.421875 -18.265625 L 11.421875 0 L 2.28125 0 L 2.28125 -36.53125 C 2.28125 -38.207031 2.6875 -39.738281 3.5 -41.125 C 4.320312 -42.507812 5.425781 -43.609375 6.8125 -44.421875 C 8.207031 -45.242188 9.742188 -45.65625 11.421875 -45.65625 Z M 11.421875 -36.53125 L 11.421875 -27.390625 L 38.8125 -27.390625 L 38.8125 -36.53125 Z M 11.421875 -36.53125 "/></g></g></g><g fill="#6880b0" fill-opacity="1"><g transform="translate(183.111442, 161.780265)"><g><path d="M 47.953125 -45.65625 L 47.953125 -36.53125 L 11.421875 -36.53125 L 11.421875 -27.390625 L 38.8125 -27.390625 C 40.488281 -27.390625 42.019531 -26.976562 43.40625 -26.15625 C 44.789062 -25.34375 45.894531 -24.242188 46.71875 -22.859375 C 47.539062 -21.472656 47.953125 -19.941406 47.953125 -18.265625 L 47.953125 -9.125 C 47.953125 -7.457031 47.539062 -5.925781 46.71875 -4.53125 C 45.894531 -3.144531 44.789062 -2.039062 43.40625 -1.21875 C 42.019531 -0.40625 40.488281 0 38.8125 0 L 2.28125 0 L 2.28125 -9.125 L 38.8125 -9.125 L 38.8125 -18.265625 L 11.421875 -18.265625 C 9.742188 -18.265625 8.207031 -18.671875 6.8125 -19.484375 C 5.425781 -20.304688 4.320312 -21.410156 3.5 -22.796875 C 2.6875 -24.191406 2.28125 -25.722656 2.28125 -27.390625 L 2.28125 -36.53125 C 2.28125 -38.207031 2.6875 -39.738281 3.5 -41.125 C 4.320312 -42.507812 5.425781 -43.609375 6.8125 -44.421875 C 8.207031 -45.242188 9.742188 -45.65625 11.421875 -45.65625 Z M 47.953125 -45.65625 "/></g></g></g><g fill="#6880b0" fill-opacity="1"><g transform="translate(233.334707, 161.780265)"><g><path d="M 47.953125 0 L 2.28125 0 L 2.28125 -9.125 L 20.546875 -9.125 L 20.546875 -36.53125 L 2.28125 -36.53125 L 2.28125 -45.65625 L 47.953125 -45.65625 L 47.953125 -36.53125 L 29.6875 -36.53125 L 29.6875 -9.125 L 47.953125 -9.125 Z M 47.953125 0 "/></g></g></g><g fill="#6880b0" fill-opacity="1"><g transform="translate(283.557972, 161.780265)"><g><path d="M 11.421875 0 L 2.28125 0 L 2.28125 -41.09375 C 2.28125 -42.351562 2.726562 -43.425781 3.625 -44.3125 C 4.519531 -45.207031 5.59375 -45.65625 6.84375 -45.65625 C 8.101562 -45.65625 9.191406 -45.203125 10.109375 -44.296875 L 38.8125 -15.578125 L 38.8125 -45.65625 L 47.953125 -45.65625 L 47.953125 -4.5625 C 47.953125 -3.3125 47.503906 -2.238281 46.609375 -1.34375 C 45.710938 -0.445312 44.632812 0 43.375 0 C 42.125 0 41.039062 -0.457031 40.125 -1.375 L 11.421875 -30.078125 Z M 11.421875 0 "/></g></g></g><g fill="#6880b0" fill-opacity="1"><g transform="translate(333.781237, 161.780265)"><g><path d="M 4.5625 -27.390625 L 0 -27.390625 L 0 -36.53125 L 4.5625 -36.53125 L 4.5625 -45.65625 L 13.703125 -45.65625 L 13.703125 -36.53125 C 13.703125 -34.851562 13.289062 -33.320312 12.46875 -31.9375 C 11.65625 -30.550781 10.550781 -29.445312 9.15625 -28.625 C 7.769531 -27.800781 6.238281 -27.390625 4.5625 -27.390625 Z M 4.5625 -27.390625 "/></g></g></g><path stroke-linecap="butt" transform="matrix(0.778309, 0, 0, 0.778309, 25.735797, 114.115877)" fill="none" stroke-linejoin="miter" d="M 66.980284 57.999982 L 20.038603 57.999982 C 17.890517 57.999982 15.918094 57.472998 14.131369 56.42405 C 12.349662 55.375102 10.934335 53.959775 9.885387 52.183088 C 8.836439 50.391344 8.309456 48.423939 8.309456 46.275854 L 8.309456 11.078376 C 8.309456 8.915234 8.836439 6.947829 9.885387 5.171142 C 10.934335 3.379398 12.349662 1.959052 14.131369 0.910104 C 15.918094 -0.143863 17.890517 -0.665828 20.038603 -0.665828 L 66.980284 -0.665828 L 66.980284 11.078376 L 20.038603 11.078376 L 20.038603 46.275854 L 66.980284 46.275854 Z M 119.763955 22.802503 L 119.763955 -0.665828 L 131.508158 -0.665828 L 131.508158 57.999982 L 119.763955 57.999982 L 119.763955 34.53165 L 84.566476 34.53165 L 84.566476 57.999982 L 72.83733 57.999982 L 72.83733 -0.665828 L 84.566476 -0.665828 L 84.566476 22.802503 Z M 149.09435 -0.665828 L 184.291829 -0.665828 C 186.439914 -0.665828 188.407319 -0.143863 190.199063 0.910104 C 191.990806 1.959052 193.411152 3.379398 194.460101 5.171142 C 195.509049 6.947829 196.036032 8.915234 196.036032 11.078376 L 196.036032 57.999982 L 184.291829 57.999982 L 184.291829 34.53165 L 149.09435 34.53165 L 149.09435 57.999982 L 137.370222 57.999982 L 137.370222 11.078376 C 137.370222 8.915234 137.892187 6.947829 138.946154 5.171142 C 139.995102 3.379398 141.410429 1.959052 143.187116 0.910104 C 144.97886 -0.143863 146.946265 -0.665828 149.09435 -0.665828 Z M 149.09435 11.078376 L 149.09435 22.802503 L 184.291829 22.802503 L 184.291829 11.078376 Z M 260.563906 -0.665828 L 260.563906 11.078376 L 213.622224 11.078376 L 213.622224 22.802503 L 248.819702 22.802503 C 250.967788 22.802503 252.940211 23.329487 254.726936 24.378435 C 256.51868 25.427383 257.939026 26.847729 258.987974 28.639473 C 260.041941 30.41616 260.563906 32.378546 260.563906 34.53165 L 260.563906 46.275854 C 260.563906 48.423939 260.041941 50.391344 258.987974 52.183088 C 257.939026 53.959775 256.51868 55.375102 254.726936 56.42405 C 252.940211 57.472998 250.967788 57.999982 248.819702 57.999982 L 201.898096 57.999982 L 201.898096 46.275854 L 248.819702 46.275854 L 248.819702 34.53165 L 213.622224 34.53165 C 211.474139 34.53165 209.506734 34.004667 207.71499 32.955719 C 205.938303 31.901752 204.522976 30.491444 203.474028 28.709737 C 202.420061 26.923013 201.898096 24.950589 201.898096 22.802503 L 201.898096 11.078376 C 201.898096 8.915234 202.420061 6.947829 203.474028 5.171142 C 204.522976 3.379398 205.938303 1.959052 207.71499 0.910104 C 209.506734 -0.143863 211.474139 -0.665828 213.622224 -0.665828 Z M 325.09178 57.999982 L 266.42597 57.999982 L 266.42597 46.275854 L 289.894301 46.275854 L 289.894301 11.078376 L 266.42597 11.078376 L 266.42597 -0.665828 L 325.09178 -0.665828 L 325.09178 11.078376 L 301.623448 11.078376 L 301.623448 46.275854 L 325.09178 46.275854 Z M 342.682991 57.999982 L 330.953844 57.999982 L 330.953844 5.206274 C 330.953844 3.59521 331.525997 2.215015 332.675323 1.070708 C 333.81963 -0.0886556 335.204844 -0.665828 336.825946 -0.665828 C 338.437009 -0.665828 339.827242 -0.0786178 340.996643 1.10584 L 377.87545 37.984647 L 377.87545 -0.665828 L 389.619654 -0.665828 L 389.619654 52.12788 C 389.619654 53.738944 389.042481 55.124158 387.883118 56.283521 C 386.738811 57.427828 385.358616 57.999982 383.747552 57.999982 C 382.136488 57.999982 380.741237 57.412772 379.561797 56.24337 L 342.682991 19.349507 Z M 398.417769 22.802503 L 392.545667 22.802503 L 392.545667 11.078376 L 398.417769 11.078376 L 398.417769 -0.665828 L 410.146915 -0.665828 L 410.146915 11.078376 C 410.146915 13.226461 409.619932 15.193866 408.570984 16.98561 C 407.522036 18.762297 406.10169 20.177624 404.309946 21.226572 C 402.52824 22.27552 400.565854 22.802503 398.417769 22.802503 Z M 398.417769 22.802503 " stroke="#122c61" stroke-width="2.75001" stroke-opacity="1" stroke-miterlimit="4"/><g fill="#ac5c5c" fill-opacity="1"><g transform="translate(26.550365, 234.389814)"><g><path d="M 40.921875 -48.140625 C 42.679688 -48.140625 44.289062 -47.707031 45.75 -46.84375 C 47.21875 -45.976562 48.382812 -44.8125 49.25 -43.34375 C 50.113281 -41.882812 50.546875 -40.273438 50.546875 -38.515625 L 50.546875 -28.875 C 50.546875 -27.113281 50.113281 -25.5 49.25 -24.03125 C 48.382812 -22.570312 47.21875 -21.410156 45.75 -20.546875 C 44.289062 -19.679688 42.679688 -19.25 40.921875 -19.25 L 12.03125 -19.25 L 12.03125 0 L 2.40625 0 L 2.40625 -48.140625 Z M 12.03125 -28.875 L 40.921875 -28.875 L 40.921875 -38.515625 L 12.03125 -38.515625 Z M 12.03125 -28.875 "/></g></g></g><g fill="#ac5c5c" fill-opacity="1"><g transform="translate(79.500946, 234.389814)"><g><path d="M 12.03125 -48.140625 L 40.921875 -48.140625 C 42.679688 -48.140625 44.289062 -47.707031 45.75 -46.84375 C 47.21875 -45.976562 48.382812 -44.8125 49.25 -43.34375 C 50.113281 -41.882812 50.546875 -40.273438 50.546875 -38.515625 L 50.546875 0 L 40.921875 0 L 40.921875 -19.25 L 12.03125 -19.25 L 12.03125 0 L 2.40625 0 L 2.40625 -38.515625 C 2.40625 -40.273438 2.835938 -41.882812 3.703125 -43.34375 C 4.566406 -44.8125 5.726562 -45.976562 7.1875 -46.84375 C 8.65625 -47.707031 10.269531 -48.140625 12.03125 -48.140625 Z M 12.03125 -38.515625 L 12.03125 -28.875 L 40.921875 -28.875 L 40.921875 -38.515625 Z M 12.03125 -38.515625 "/></g></g></g><g fill="#ac5c5c" fill-opacity="1"><g transform="translate(132.451528, 234.389814)"><g><path d="M 40.921875 -28.875 L 40.921875 -48.140625 L 50.546875 -48.140625 L 50.546875 -9.625 C 50.546875 -7.863281 50.113281 -6.25 49.25 -4.78125 C 48.382812 -3.320312 47.21875 -2.160156 45.75 -1.296875 C 44.289062 -0.429688 42.679688 0 40.921875 0 L 2.40625 0 L 2.40625 -9.625 L 40.921875 -9.625 L 40.921875 -19.25 L 12.03125 -19.25 C 10.269531 -19.25 8.65625 -19.679688 7.1875 -20.546875 C 5.726562 -21.410156 4.566406 -22.570312 3.703125 -24.03125 C 2.835938 -25.5 2.40625 -27.113281 2.40625 -28.875 L 2.40625 -48.140625 L 12.03125 -48.140625 L 12.03125 -28.875 Z M 40.921875 -28.875 "/></g></g></g><g fill="#ac5c5c" fill-opacity="1"><g transform="translate(185.402109, 234.389814)"><g><path d="M 50.546875 -48.140625 L 50.546875 -38.515625 L 12.03125 -38.515625 L 12.03125 -28.875 L 40.921875 -28.875 C 42.679688 -28.875 44.289062 -28.441406 45.75 -27.578125 C 47.21875 -26.722656 48.382812 -25.5625 49.25 -24.09375 C 50.113281 -22.632812 50.546875 -21.019531 50.546875 -19.25 L 50.546875 -9.625 C 50.546875 -7.863281 50.113281 -6.25 49.25 -4.78125 C 48.382812 -3.320312 47.21875 -2.160156 45.75 -1.296875 C 44.289062 -0.429688 42.679688 0 40.921875 0 L 2.40625 0 L 2.40625 -9.625 L 40.921875 -9.625 L 40.921875 -19.25 L 12.03125 -19.25 C 10.269531 -19.25 8.65625 -19.679688 7.1875 -20.546875 C 5.726562 -21.410156 4.566406 -22.570312 3.703125 -24.03125 C 2.835938 -25.5 2.40625 -27.113281 2.40625 -28.875 L 2.40625 -38.515625 C 2.40625 -40.273438 2.835938 -41.882812 3.703125 -43.34375 C 4.566406 -44.8125 5.726562 -45.976562 7.1875 -46.84375 C 8.65625 -47.707031 10.269531 -48.140625 12.03125 -48.140625 Z M 50.546875 -48.140625 "/></g></g></g><g fill="#ac5c5c" fill-opacity="1"><g transform="translate(238.35269, 234.389814)"><g><path d="M 40.921875 0 L 12.03125 0 C 10.269531 0 8.65625 -0.429688 7.1875 -1.296875 C 5.726562 -2.160156 4.566406 -3.320312 3.703125 -4.78125 C 2.835938 -6.25 2.40625 -7.863281 2.40625 -9.625 L 2.40625 -38.515625 C 2.40625 -40.273438 2.835938 -41.882812 3.703125 -43.34375 C 4.566406 -44.8125 5.726562 -45.976562 7.1875 -46.84375 C 8.65625 -47.707031 10.269531 -48.140625 12.03125 -48.140625 L 40.921875 -48.140625 C 42.679688 -48.140625 44.289062 -47.707031 45.75 -46.84375 C 47.21875 -45.976562 48.382812 -44.8125 49.25 -43.34375 C 50.113281 -41.882812 50.546875 -40.273438 50.546875 -38.515625 L 50.546875 -9.625 C 50.546875 -7.90625 50.113281 -6.3125 49.25 -4.84375 C 48.382812 -3.375 47.226562 -2.195312 45.78125 -1.3125 C 44.34375 -0.4375 42.722656 0 40.921875 0 Z M 12.03125 -38.515625 L 12.03125 -9.625 L 40.921875 -9.625 L 40.921875 -38.515625 Z M 12.03125 -38.515625 "/></g></g></g><g fill="#ac5c5c" fill-opacity="1"><g transform="translate(291.303272, 234.389814)"><g><path d="M 12.03125 0 L 2.40625 0 L 2.40625 -43.328125 C 2.40625 -44.648438 2.875 -45.78125 3.8125 -46.71875 C 4.757812 -47.664062 5.894531 -48.140625 7.21875 -48.140625 C 8.539062 -48.140625 9.6875 -47.65625 10.65625 -46.6875 L 40.921875 -16.421875 L 40.921875 -48.140625 L 50.546875 -48.140625 L 50.546875 -4.8125 C 50.546875 -3.488281 50.070312 -2.351562 49.125 -1.40625 C 48.1875 -0.46875 47.054688 0 45.734375 0 C 44.410156 0 43.265625 -0.476562 42.296875 -1.4375 L 12.03125 -31.703125 Z M 12.03125 0 "/></g></g></g><path stroke-linecap="butt" transform="matrix(0.820575, 0, 0, 0.820575, 25.735797, 182.708191)" fill="none" stroke-linejoin="miter" d="M 53.390726 -0.667867 C 55.537659 -0.667867 57.508458 -0.144225 59.298362 0.90782 C 61.088266 1.959864 62.50686 3.378459 63.558905 5.168363 C 64.61095 6.948746 65.134592 8.914784 65.134592 11.075998 L 65.134592 22.800822 C 65.134592 24.952516 64.61095 26.918554 63.558905 28.713218 C 62.50686 30.488841 61.088266 31.902675 59.298362 32.95472 C 57.508458 34.002004 55.537659 34.530407 53.390726 34.530407 L 18.192452 34.530407 L 18.192452 57.999096 L 6.467628 57.999096 L 6.467628 -0.667867 Z M 18.192452 22.800822 L 53.390726 22.800822 L 53.390726 11.075998 L 18.192452 11.075998 Z M 82.724208 -0.667867 L 117.917722 -0.667867 C 120.069415 -0.667867 122.035453 -0.144225 123.825357 0.90782 C 125.615261 1.959864 127.038616 3.378459 128.0859 5.168363 C 129.137945 6.948746 129.661587 8.914784 129.661587 11.075998 L 129.661587 57.999096 L 117.917722 57.999096 L 117.917722 34.530407 L 82.724208 34.530407 L 82.724208 57.999096 L 70.994624 57.999096 L 70.994624 11.075998 C 70.994624 8.914784 71.523026 6.948746 72.57031 5.168363 C 73.622355 3.378459 75.036189 1.959864 76.816572 0.90782 C 78.606476 -0.144225 80.572515 -0.667867 82.724208 -0.667867 Z M 82.724208 11.075998 L 82.724208 22.800822 L 117.917722 22.800822 L 117.917722 11.075998 Z M 182.449477 22.800822 L 182.449477 -0.667867 L 194.193343 -0.667867 L 194.193343 46.274272 C 194.193343 48.421205 193.66494 50.392004 192.617656 52.181908 C 191.565611 53.962291 190.147017 55.376125 188.357113 56.423409 C 186.567209 57.475454 184.59641 57.999096 182.449477 57.999096 L 135.526379 57.999096 L 135.526379 46.274272 L 182.449477 46.274272 L 182.449477 34.530407 L 147.251203 34.530407 C 145.104271 34.530407 143.133472 34.002004 141.343568 32.95472 C 139.563184 31.902675 138.149351 30.488841 137.102066 28.713218 C 136.050022 26.918554 135.526379 24.952516 135.526379 22.800822 L 135.526379 -0.667867 L 147.251203 -0.667867 L 147.251203 22.800822 Z M 258.720338 -0.667867 L 258.720338 11.075998 L 211.778199 11.075998 L 211.778199 22.800822 L 246.976473 22.800822 C 249.123406 22.800822 251.094204 23.329225 252.884108 24.376509 C 254.674013 25.428554 256.097367 26.847148 257.144652 28.637052 C 258.196696 30.417436 258.720338 32.378714 258.720338 34.530407 L 258.720338 46.274272 C 258.720338 48.421205 258.196696 50.392004 257.144652 52.181908 C 256.097367 53.962291 254.674013 55.376125 252.884108 56.423409 C 251.094204 57.475454 249.123406 57.999096 246.976473 57.999096 L 200.053375 57.999096 L 200.053375 46.274272 L 246.976473 46.274272 L 246.976473 34.530407 L 211.778199 34.530407 C 209.631266 34.530407 207.660467 34.002004 205.870563 32.95472 C 204.09494 31.902675 202.681106 30.488841 201.629062 28.713218 C 200.577017 26.918554 200.053375 24.952516 200.053375 22.800822 L 200.053375 11.075998 C 200.053375 8.914784 200.577017 6.948746 201.629062 5.168363 C 202.681106 3.378459 204.09494 1.959864 205.870563 0.90782 C 207.660467 -0.144225 209.631266 -0.667867 211.778199 -0.667867 Z M 311.503468 57.999096 L 276.309955 57.999096 C 274.158261 57.999096 272.192223 57.475454 270.402319 56.423409 C 268.621936 55.376125 267.208102 53.962291 266.156057 52.181908 C 265.108773 50.392004 264.58037 48.421205 264.58037 46.274272 L 264.58037 11.075998 C 264.58037 8.914784 265.108773 6.948746 266.156057 5.168363 C 267.208102 3.378459 268.621936 1.959864 270.402319 0.90782 C 272.192223 -0.144225 274.158261 -0.667867 276.309955 -0.667867 L 311.503468 -0.667867 C 313.655161 -0.667867 315.6212 -0.144225 317.411104 0.90782 C 319.205768 1.959864 320.624363 3.378459 321.676407 5.168363 C 322.723692 6.948746 323.247334 8.914784 323.247334 11.075998 L 323.247334 46.274272 C 323.247334 48.373601 322.723692 50.320598 321.676407 52.110502 C 320.624363 53.886125 319.215289 55.31424 317.449187 56.390087 C 315.692606 57.461173 313.712286 57.999096 311.503468 57.999096 Z M 276.309955 11.075998 L 276.309955 46.274272 L 311.503468 46.274272 L 311.503468 11.075998 Z M 340.83695 57.999096 L 329.112126 57.999096 L 329.112126 5.206446 C 329.112126 3.592676 329.683372 2.216925 330.830624 1.069673 C 331.973116 -0.0871005 333.358388 -0.667867 334.981679 -0.667867 C 336.595449 -0.667867 337.98548 -0.0775797 339.151774 1.102995 L 376.035224 37.986445 L 376.035224 -0.667867 L 387.77909 -0.667867 L 387.77909 52.129544 C 387.77909 53.738553 387.198323 55.123825 386.04155 56.280598 C 384.894297 57.42785 383.518547 57.999096 381.904777 57.999096 C 380.295767 57.999096 378.896214 57.413569 377.715639 56.247275 L 340.83695 19.349544 Z M 340.83695 57.999096 " stroke="#580606" stroke-width="5.041678" stroke-opacity="1" stroke-miterlimit="4"/></svg>